Coordinates
version=1
nRows=6
nColumns=63
inDegrees=yes

Units are S.I. units (second, meters, Newtons, ...)
If the header above contains a line with 'inDegrees', this indicates whether rotational values are in degrees (yes) or radians (no).

endheader
time	pelvis_tilt	pelvis_list	pelvis_rotation	pelvis_tx	pelvis_ty	pelvis_tz	hip_flexion_r	hip_adduction_r	hip_rotation_r	knee_angle_r	knee_angle_r_beta	ankle_angle_r	subtalar_angle_r	mtp_angle_r	hip_flexion_l	hip_adduction_l	hip_rotation_l	knee_angle_l	knee_angle_l_beta	ankle_angle_l	subtalar_angle_l	mtp_angle_l	L5_S1_Flex_Ext	L5_S1_Lat_Bending	L5_S1_axial_rotation	L4_L5_Flex_Ext	L4_L5_Lat_Bending	L4_L5_axial_rotation	L3_L4_Flex_Ext	L3_L4_Lat_Bending	L3_L4_axial_rotation	L2_L3_Flex_Ext	L2_L3_Lat_Bending	L2_L3_axial_rotation	L1_L2_Flex_Ext	L1_L2_Lat_Bending	L1_L2_axial_rotation	L1_T12_Flex_Ext	L1_T12_Lat_Bending	L1_T12_axial_rotation	Abs_r3	Abs_r2	Abs_r1	Abs_t1	Abs_t2	neck_flexion	neck_bending	neck_rotation	arm_flex_r	arm_add_r	arm_rot_r	elbow_flex_r	pro_sup_r	wrist_flex_r	wrist_dev_r	arm_flex_l	arm_add_l	arm_rot_l	elbow_flex_l	pro_sup_l	wrist_flex_l	wrist_dev_l
4.152542	2.340753	-1.710129	94.459169	0.154926	0.934644	0.497788	5.321830	-1.094937	-8.546587	14.770442	0.257793	25.124953	-2.058315	0.000000	0.401238	-1.263407	19.783299	0.511439	0.008926	19.251994	-16.172636	0.000000	-0.072358	0.638680	-0.886015	-0.134376	0.849445	-0.941391	-0.118877	1.552887	-0.941391	-0.082698	1.552887	-0.775263	-0.067192	1.302397	-0.719888	-0.041345	0.989316	-0.664512	-0.516847	7.224878	-4.927752	0.000000	0.000000	25.474311	-1.066806	5.554790	10.088777	-15.789492	103.819514	11.850665	5.597463	-6.174523	-10.016133	8.377821	-1.957302	166.365711	1.084794	5.395619	-6.988000	-5.082722
4.169492	2.482100	-1.675225	94.324989	0.155009	0.934678	0.497153	5.226935	-0.950026	-8.638538	14.712714	0.256785	25.061010	-1.825766	0.000000	0.266566	-1.424339	19.977482	0.520794	0.009090	19.069723	-16.375105	0.000000	-0.071253	0.664127	-0.858226	-0.132324	0.883289	-0.911865	-0.117062	1.614758	-0.911865	-0.081435	1.614758	-0.750948	-0.066166	1.354287	-0.697309	-0.040714	1.028732	-0.643670	-0.508953	7.512735	-4.773197	0.000000	0.000000	25.500691	-1.139457	5.850058	10.093015	-15.986055	103.204342	12.034141	5.836567	-6.274396	-10.103517	8.655482	-1.871780	167.480666	0.980775	6.071769	-7.538598	-4.401421
4.186441	2.578398	-1.636014	94.132363	0.155144	0.934748	0.496476	5.119496	-0.851684	-8.685628	14.657839	0.255828	24.930402	-1.595303	0.000000	0.114206	-1.533445	20.090406	0.534274	0.009325	18.841755	-16.569074	0.000000	-0.068278	0.684324	-0.817185	-0.126799	0.910151	-0.868259	-0.112173	1.663865	-0.868259	-0.078035	1.663865	-0.715037	-0.063403	1.395473	-0.663963	-0.039014	1.060018	-0.612889	-0.487701	7.741208	-4.544940	0.000000	0.000000	25.558559	-1.186551	6.140407	10.084252	-16.152945	102.911264	12.203417	6.195877	-6.472427	-10.233135	8.978475	-1.892392	168.603512	0.852148	7.126480	-8.476818	-3.662184
4.203390	2.619570	-1.600210	93.894121	0.155321	0.934827	0.495793	5.010702	-0.824277	-8.795338	14.616530	0.255107	24.790976	-1.213427	0.000000	-0.037972	-1.578410	20.143809	0.561582	0.009801	18.577638	-16.754060	0.000000	-0.062757	0.697674	-0.761281	-0.116547	0.927907	-0.808861	-0.103104	1.696325	-0.808861	-0.071726	1.696325	-0.666121	-0.058277	1.422697	-0.618541	-0.035860	1.080697	-0.570961	-0.448271	7.892230	-4.234019	0.000000	0.000000	25.644705	-1.238874	6.355154	10.056411	-16.288882	102.995734	12.345029	6.514601	-6.705973	-10.389495	9.329453	-1.994284	169.877491	0.706168	8.182307	-9.769851	-2.930252
4.220339	2.597115	-1.571185	93.626468	0.155546	0.934901	0.495129	4.906587	-0.870347	-8.920009	14.588158	0.254611	24.669014	-0.753728	0.000000	-0.179886	-1.551079	20.141552	0.605077	0.010561	18.297352	-16.912122	0.000000	-0.055190	0.702575	-0.694092	-0.102494	0.934424	-0.737473	-0.090672	1.708240	-0.737473	-0.063077	1.708240	-0.607331	-0.051250	1.432691	-0.563950	-0.031536	1.088288	-0.520569	-0.394219	7.947667	-3.860332	0.000000	0.000000	25.751481	-1.245010	6.523353	9.999662	-16.396249	103.300220	12.467547	6.748419	-6.917583	-10.573313	9.674310	-2.161580	170.970649	0.557368	9.029607	-11.228408	-2.342219
4.237288	2.514965	-1.550074	93.339266	0.155836	0.934962	0.494491	4.811807	-0.985865	-9.076201	14.571454	0.254320	24.614675	-0.186013	0.000000	-0.301976	-1.457348	20.082808	0.671294	0.011716	18.010917	-17.040323	0.000000	-0.045880	0.699023	-0.613786	-0.085204	0.929700	-0.652148	-0.075376	1.699604	-0.652148	-0.052436	1.699604	-0.537063	-0.042604	1.425447	-0.498701	-0.026216	1.082786	-0.460340	-0.327716	7.907486	-3.413694	0.000000	0.000000	25.868828	-1.223114	6.612916	9.884575	-16.486000	103.550647	12.588391	6.946942	-7.075890	-10.791749	9.999880	-2.371816	171.684936	0.431136	9.588324	-12.658297	-1.948937
